{"title":"Spy Kids4, All the Time in the World 2011 DVDrip Dutch Klam","uid":7013085,"size":1649591438,"categoryP":"video","categoryS":"movies","magnet":"?xt=urn:btih:9fe34ad3be287443b3edfedf03598fa63f759b10&amp;dn=Spy+Kids4%2C+All+the+Time+in+the+World+2011+DVDrip+Dutch+Klam&amp;tr=udp%3A%2F%2Ftracker.openbittorrent.com%3A80&amp;tr=udp%3A%2F%2Fopen.demonii.com%3A1337&amp;tr=udp%3A%2F%2Ftracker.coppersurfer.tk%3A6969&amp;tr=udp%3A%2F%2Fexodus.desync.com%3A6969","seeders":0,"leechers":0,"uploader":"Klambake","files":-1,"time":1328544213,"description":"With: Jessica Alba, Rowan Blanchard and Jeremy Piven\n\nNederlands gesproken,\nDe tweeling Rebecca en Cecil kan niet overweg met hun stiefmoeder Marissa Cortez Wilson die met hun vader Wilbur, een verslaggever die op zoek gaat naar spionnen, is getrouwd. Wat ze echter niet weten is dat Marissa een ex-spionne is voor de OSS (Organisatie van Super Spionnen), een organisatie die is uitgegroeid tot 's werelds beste spionnen-agentschap in het voormalig hoofdkantoor van de ter ziele gegane Spy Kids divisie. Als de wereld bedreigd wordt door de Timekeeper wordt ze weer opgeroepen door de OSS om in actie te komen. Met het einde van de wereld in zicht besluit de tweeling hun meningsverschillen opzij te zetten en de handen in elkaar te slaan met Marissa om de wereld te redden.\n\nDutch spoken,\nA retired spy is called back into action, and to bond with her new step-children, she invites them along for the adventure to stop the evil Timekeeper from taking over the world.\n\n------------------------ Dutch Friends ------------------------\n---------------------------------------------------------------\n- Bezoek ook eens mijn vrienden op: &lt;a href=&quot; http://www.Film-Test.nl&quot; rel=&quot;nofollow&quot; target=&quot;_NEW&quot;&gt; http://www.Film-Test.nl&lt;/a&gt; --\n----- voor mijn Nederlandse Sync. ondertitels ---- en meer ----\n------- http://www.Film-Test.nl ---- voor Films en meer -------\n---------------------------------------------------------------\n\nGeneral:\n\nComplete name                    : Spy Kids 4\\All the Time in the World.avi\nFormat                           : AVI\nFormat/Info                      : Audio Video Interleave\nFile size                        : 1.54 GiB\nDuration                         : 1h 24mn\nOverall bit rate                 : 2 614 Kbps\n\nVideo:\n\nFormat                           : MPEG-4 Visual\nFormat profile                   : Simple@L3\nFormat settings, BVOP            : No\nFormat settings, QPel            : No\nFormat settings, GMC             : No warppoints\nFormat settings, Matrix          : Default (H.263)\nCodec ID                         : XVID\nCodec ID/Hint                    : XviD\nDuration                         : 1h 24mn\nBit rate                         : 2 155 Kbps\nWidth                            : 652 pixels\nHeight                           : 352 pixels\nDisplay aspect ratio             : 1.852\nFrame rate                       : 25.000 fps\nColor space                      : YUV\nChroma subsampling               : 4:2:0\nBit depth                        : 8 bits\nScan type                        : Progressive\nCompression mode                 : Lossy\nBits/(Pixel*Frame)               : 0.376\nStream size                      : 1.27 GiB (82%)\nWriting library                  : XviD 1.1.2 (UTC 2006-11-01)\n\nAudio:\n\nFormat                           : AC-3\nFormat/Info                      : Audio Coding 3\nMode extension                   : CM (complete main)\nCodec ID                         : 2000\nDuration                         : 1h 24mn\nBit rate mode                    : Constant\nBit rate                         : 448 Kbps\nChannel(s)                       : 6 channels\nChannel positions                : Front: L C R, Side: L R, LFE\nSampling rate                    : 48.0 KHz\nBit depth                        : 16 bits\nCompression mode                 : Lossy\nStream size                      : 270 MiB (17%)\nAlignment                        : Aligned on interleaves\nInterleave, duration             : 32 ms (0.80 video frame)\n\n","torrent":{"xt":"urn:btih:9fe34ad3be287443b3edfedf03598fa63f759b10","amp;dn":"Spy+Kids4%2C+All+the+Time+in+the+World+2011+DVDrip+Dutch+Klam","amp;tr":["udp%3A%2F%2Ftracker.openbittorrent.com%3A80","udp%3A%2F%2Fopen.demonii.com%3A1337","udp%3A%2F%2Ftracker.coppersurfer.tk%3A6969","udp%3A%2F%2Fexodus.desync.com%3A6969"],"infoHash":"9fe34ad3be287443b3edfedf03598fa63f759b10","infoHashBuffer":{"type":"Buffer","data":[159,227,74,211,190,40,116,67,179,237,254,223,3,89,143,166,63,117,155,16]},"announce":[],"urlList":[]}}